<?xml version="1.0" standalone="no"?>
<!DOCTYPE svg PUBLIC "-//W3C//DTD SVG 20010904//EN"
 "http://www.w3.org/TR/2001/REC-SVG-20010904/DTD/svg10.dtd">
<svg version="1.0" xmlns="http://www.w3.org/2000/svg"
 width="2083.000000pt" height="854.000000pt" viewBox="0 0 2083.000000 854.000000"
 preserveAspectRatio="xMidYMid meet">
<metadata>
Created by potrace 1.16, written by Peter Selinger 2001-2019
</metadata>
<g transform="translate(0.000000,854.000000) scale(0.100000,-0.100000)"
fill="#000000" stroke="none">
<path d="M11645 8402 c-192 -162 -390 -382 -523 -580 -189 -280 -264 -516
-287 -897 -6 -102 8 -371 23 -458 l7 -38 47 65 c54 75 143 145 226 177 82 32
222 32 315 0 93 -32 176 -95 234 -180 26 -39 50 -70 53 -70 3 -1 21 24 40 55
116 187 360 270 565 193 76 -28 163 -95 217 -167 45 -59 46 -60 51 -34 3 15
11 102 18 194 21 274 -9 554 -82 772 -56 169 -181 382 -337 576 -90 112 -296
319 -403 406 l-75 62 -89 -76z"/>
<path d="M7511 6479 c-124 -21 -253 -92 -351 -195 -145 -153 -191 -340 -130
-538 63 -204 319 -297 578 -210 216 72 359 257 379 488 19 231 -112 416 -322
455 -66 12 -78 12 -154 0z"/>
<path d="M5180 6199 c-150 -10 -274 -62 -522 -216 -109 -68 -127 -60 157 -71
l180 -7 -339 -73 -339 -74 -126 -92 c-196 -143 -231 -170 -227 -174 2 -2 75
17 163 42 737 210 1521 327 1998 298 l130 -8 238 144 c131 80 236 146 234 148
-13 13 -771 70 -1117 84 -267 11 -276 11 -430 -1z"/>
<path d="M622 5981 c-76 -26 -122 -68 -162 -146 l-35 -68 0 -1401 0 -1401 26
-55 c33 -70 79 -116 149 -149 l55 -26 910 0 c822 0 919 2 1007 18 575 103 985
507 1095 1078 16 82 18 152 18 534 0 491 -4 536 -70 732 -68 202 -169 368
-315 513 -181 182 -401 299 -678 362 -96 22 -110 22 -1022 25 -879 3 -928 2
-978 -16z m1919 -608 c218 -61 375 -190 468 -383 72 -147 76 -183 76 -620 0
-443 -5 -478 -82 -639 -37 -78 -59 -107 -126 -175 -94 -93 -163 -137 -279
-177 -131 -44 -223 -49 -923 -49 l-645 0 0 1035 0 1036 718 -3 c699 -3 719 -4
793 -25z"/>
<path d="M11430 4492 c0 -1685 -5 -1569 71 -1656 64 -73 124 -99 241 -104 196
-9 479 35 701 109 67 22 194 75 282 118 263 129 446 263 666 488 382 390 671
881 914 1553 36 99 65 185 65 190 0 6 -118 10 -319 10 l-319 0 -12 -47 c-42
-169 -215 -553 -345 -768 -377 -622 -827 -985 -1277 -1030 l-68 -7 0 1326 0
1326 -300 0 -300 0 0 -1508z"/>
<path d="M4804 5190 c-181 -25 -330 -103 -460 -243 -81 -87 -141 -193 -181
-322 l-28 -90 0 -580 0 -580 26 -81 c71 -228 248 -414 470 -498 151 -57 137
-56 1159 -56 l940 0 0 285 0 285 -914 0 c-995 0 -957 -2 -1034 57 -39 29 -82
113 -82 160 l0 32 728 3 c712 4 729 5 806 26 366 101 590 409 588 807 0 146
-20 241 -72 350 -103 215 -277 357 -518 423 l-97 26 -635 2 c-349 1 -663 -2
-696 -6z m1282 -575 c106 -31 167 -116 166 -232 -1 -130 -76 -223 -197 -243
-35 -6 -332 -10 -708 -10 l-648 0 3 163 c3 181 12 210 76 273 64 62 67 63 693
63 470 1 574 -1 615 -14z"/>
<path d="M7238 3813 l-3 -1388 -22 -41 c-28 -52 -72 -90 -121 -104 -23 -6
-242 -10 -594 -10 l-558 0 0 -300 0 -301 608 3 c598 4 608 4 687 27 300 86
496 277 577 567 l23 79 3 1428 3 1427 -301 0 -300 0 -2 -1387z"/>
<path d="M8330 4916 l0 -285 923 -3 c859 -3 925 -4 961 -21 90 -40 136 -100
150 -194 l6 -42 -742 -3 c-736 -4 -744 -4 -816 -26 -357 -109 -571 -409 -572
-800 0 -156 20 -245 81 -369 104 -210 273 -344 517 -411 l97 -27 655 0 c738 0
738 0 896 75 251 121 409 352 445 653 7 59 9 264 6 577 -4 543 -6 562 -76 705
-103 214 -278 357 -519 423 l-97 27 -957 3 -958 3 0 -285z m2039 -1269 c-4
-148 -5 -156 -34 -212 -39 -77 -89 -112 -176 -126 -41 -6 -274 -9 -615 -7
-532 3 -550 4 -594 24 -55 25 -113 88 -130 139 -31 94 8 234 81 286 67 47 72
48 793 48 l678 1 -3 -153z"/>
<path d="M15205 5184 c-44 -8 -114 -26 -155 -40 -245 -84 -440 -295 -507 -547
-14 -53 -17 -138 -20 -577 -3 -336 -1 -542 7 -596 49 -370 331 -635 730 -684
115 -14 1138 -13 1255 1 359 44 611 252 707 584 23 79 23 85 23 630 0 547 0
550 -24 635 -68 248 -214 429 -425 530 -157 74 -143 73 -866 76 -525 2 -660 0
-725 -12z m1325 -608 c19 -10 47 -30 63 -44 54 -51 57 -84 57 -566 0 -265 -4
-455 -10 -477 -17 -59 -52 -102 -105 -129 l-50 -25 -600 0 -601 0 -49 26 c-35
18 -59 39 -80 74 l-30 48 -3 456 c-2 315 0 470 8 501 20 78 74 131 155 151 17
4 296 7 620 6 555 -2 592 -3 625 -21z"/>
<path d="M18384 5185 c-211 -38 -353 -112 -482 -250 -114 -122 -179 -262 -202
-437 -8 -57 -10 -250 -8 -589 4 -476 5 -508 25 -580 67 -239 238 -435 461
-525 175 -71 251 -76 947 -71 670 4 667 4 850 91 171 82 289 198 365 361 76
161 75 154 75 770 0 539 0 552 -23 635 -88 335 -333 555 -665 600 -118 15
-1252 12 -1343 -5z m1278 -596 c65 -14 130 -73 147 -134 7 -27 11 -192 11
-491 0 -380 -2 -458 -15 -495 -20 -55 -49 -86 -105 -113 -44 -20 -59 -21 -599
-24 -337 -2 -580 1 -619 7 -81 13 -134 48 -164 110 -23 46 -23 46 -23 521 0
466 0 476 21 515 29 54 54 75 116 96 49 17 99 18 615 19 381 0 579 -4 615 -11z"/>
<path d="M9744 1250 c-154 -23 -248 -106 -261 -232 -15 -153 62 -225 296 -278
216 -49 269 -80 278 -160 6 -63 -21 -108 -83 -140 -41 -21 -62 -25 -139 -25
-76 1 -98 4 -140 26 -60 30 -104 89 -112 147 l-6 42 -64 0 -65 0 7 -42 c19
-124 60 -186 151 -235 196 -104 479 -49 558 108 45 91 32 205 -32 272 -51 54
-126 83 -342 132 -158 36 -212 101 -161 195 27 51 89 80 169 80 125 0 198 -44
221 -134 l11 -46 60 0 c59 0 60 1 60 28 0 80 -55 177 -123 216 -72 42 -188 61
-283 46z"/>
<path d="M15468 1249 c-167 -24 -272 -145 -254 -293 13 -110 89 -167 281 -212
187 -44 217 -55 258 -95 30 -30 37 -44 37 -75 0 -59 -30 -105 -86 -134 -41
-21 -62 -25 -139 -25 -78 1 -97 4 -142 28 -61 32 -102 86 -110 146 l-6 41 -64
0 -64 0 6 -37 c13 -79 27 -119 59 -163 83 -114 300 -161 483 -105 117 35 193
134 193 249 -1 149 -98 230 -335 276 -152 29 -219 63 -236 119 -10 32 -8 45 9
83 26 60 82 88 171 88 123 0 195 -44 221 -134 l13 -46 58 0 59 0 0 33 c0 98
-73 198 -171 234 -65 24 -164 33 -241 22z"/>
<path d="M11230 1222 c-51 -28 -69 -67 -77 -161 l-6 -81 -53 0 -54 0 0 -50 0
-50 55 0 55 0 0 -280 0 -280 60 0 60 0 0 280 0 280 65 0 65 0 0 50 0 50 -65 0
-65 0 0 48 c0 26 3 57 6 69 8 29 55 47 105 39 l40 -6 -3 52 -3 53 -75 3 c-58
2 -83 -2 -110 -16z"/>
<path d="M4160 775 l0 -455 65 0 65 0 0 185 0 185 168 0 c232 0 292 20 349
117 22 39 28 62 31 135 7 139 -33 218 -133 264 -48 23 -59 24 -297 24 l-248 0
0 -455z m475 325 c99 -50 101 -217 4 -275 -29 -17 -56 -20 -191 -23 l-158 -4
0 162 0 161 158 -3 c114 -2 165 -7 187 -18z"/>
<path d="M16770 775 l0 -455 60 0 60 0 0 455 0 455 -60 0 -60 0 0 -455z"/>
<path d="M18160 1160 l0 -70 55 0 55 0 0 70 0 70 -55 0 -55 0 0 -70z"/>
<path d="M8780 1080 l0 -100 -55 0 -55 0 0 -50 0 -50 55 0 54 0 3 -250 3 -250
27 -27 c25 -25 35 -27 123 -31 l95 -4 0 56 0 56 -59 0 c-44 0 -60 4 -65 16 -3
9 -6 110 -6 225 l0 209 65 0 65 0 0 50 0 50 -65 0 -65 0 0 100 0 100 -60 0
-60 0 0 -100z"/>
<path d="M11560 1080 l0 -100 -55 0 -55 0 0 -50 0 -50 54 0 54 0 4 -237 c3
-201 6 -243 20 -269 22 -40 61 -54 154 -54 l74 0 0 55 0 55 -55 0 c-43 0 -56
4 -65 19 -6 12 -10 103 -10 225 l0 206 65 0 65 0 0 50 0 50 -65 0 -65 0 0 100
0 100 -60 0 -60 0 0 -100z"/>
<path d="M17790 1080 l0 -100 -55 0 -55 0 0 -50 0 -50 55 0 55 0 1 -227 c0
-149 4 -240 12 -263 17 -50 62 -70 160 -70 l77 0 0 55 0 55 -53 0 c-29 0 -58
5 -65 12 -9 9 -12 73 -12 225 l0 213 65 0 65 0 0 50 0 50 -65 0 -65 0 0 100 0
100 -60 0 -60 0 0 -100z"/>
<path d="M5145 994 c-62 -16 -90 -29 -121 -57 -42 -36 -59 -68 -69 -124 l-7
-43 61 0 c48 0 61 3 61 15 0 32 32 77 65 91 44 18 148 18 184 -1 33 -17 56
-64 47 -99 -8 -33 -53 -51 -176 -70 -118 -18 -202 -54 -235 -99 -16 -23 -20
-44 -20 -112 0 -98 15 -126 86 -163 39 -21 55 -23 139 -20 98 4 140 18 187 61
l23 20 11 -32 c14 -39 35 -51 93 -51 69 0 76 6 76 59 0 44 -1 47 -27 46 -38 0
-41 17 -42 259 -1 194 -3 211 -22 243 -34 54 -88 76 -199 79 -52 2 -104 1
-115 -2z m223 -409 c-6 -96 -61 -157 -154 -171 -117 -17 -191 47 -151 130 20
43 66 64 169 77 46 7 92 15 103 20 35 14 37 10 33 -56z"/>
<path d="M6501 987 c-18 -7 -51 -28 -72 -45 l-39 -33 0 35 0 36 -60 0 -60 0 0
-330 0 -330 60 0 60 0 1 213 c0 136 5 224 12 245 15 39 61 90 94 103 38 14
106 11 132 -7 46 -32 51 -66 51 -319 l0 -235 60 0 60 0 0 233 c0 214 2 235 20
265 30 49 75 72 142 72 46 0 62 -5 85 -24 l28 -24 3 -261 3 -261 59 0 60 0 0
270 c0 297 -3 315 -59 363 -38 31 -88 47 -155 47 -70 0 -121 -18 -169 -61
l-43 -37 -16 28 c-9 16 -31 36 -50 46 -42 22 -161 28 -207 11z"/>
<path d="M7529 985 c-64 -20 -141 -93 -176 -163 -25 -51 -28 -67 -28 -162 0
-127 18 -188 77 -255 67 -76 104 -90 233 -90 94 0 116 3 151 22 53 28 107 91
122 142 18 59 17 61 -43 61 -51 0 -56 -2 -66 -27 -43 -114 -205 -138 -302 -45
-24 23 -57 103 -57 139 0 10 49 13 246 13 l247 0 -6 75 c-9 122 -64 219 -154
272 -57 33 -171 41 -244 18z m203 -127 c33 -25 57 -63 73 -115 l6 -23 -185 0
-185 0 8 28 c20 67 58 113 111 135 8 4 43 5 76 4 49 -2 69 -8 96 -29z"/>
<path d="M8261 987 c-18 -7 -51 -28 -72 -45 l-39 -33 0 35 0 36 -60 0 -60 0 0
-330 0 -330 60 0 60 0 0 203 c0 111 5 219 10 239 13 44 52 93 91 113 36 19
122 19 158 0 55 -28 61 -59 61 -319 l0 -236 61 0 61 0 -4 263 c-3 250 -4 264
-27 310 -33 69 -90 99 -190 104 -45 1 -90 -3 -110 -10z"/>
<path d="M10545 991 c-59 -15 -106 -44 -149 -93 -62 -68 -81 -129 -81 -253 0
-86 4 -107 26 -155 57 -122 131 -171 269 -178 47 -2 103 1 126 7 94 25 177
110 205 211 20 73 15 206 -10 271 -47 124 -142 190 -281 195 -41 2 -88 0 -105
-5z m180 -124 c61 -35 97 -101 103 -191 6 -96 -15 -162 -67 -209 -139 -125
-321 -26 -323 176 0 34 4 80 10 102 14 50 65 113 106 131 49 21 125 17 171 -9z"/>
<path d="M13127 989 c-100 -24 -165 -88 -175 -174 l-5 -46 58 3 c56 3 58 4 69
38 18 56 64 80 153 80 69 0 77 -2 104 -29 21 -22 29 -39 29 -65 0 -49 -25 -63
-152 -85 -162 -29 -188 -39 -234 -85 -33 -32 -44 -52 -49 -88 -11 -71 2 -125
41 -167 40 -45 87 -61 181 -61 79 0 141 18 190 56 26 20 33 22 33 9 0 -9 11
-27 25 -40 19 -20 34 -25 74 -25 74 0 81 5 81 60 0 48 0 48 -32 46 l-33 -1 -5
235 c-5 251 -7 259 -59 303 -50 42 -194 60 -294 36z m219 -488 c-43 -82 -192
-118 -265 -64 -20 16 -27 30 -29 65 -3 40 1 48 27 71 30 25 58 33 206 59 l70
13 3 -57 c2 -37 -2 -68 -12 -87z"/>
<path d="M13915 985 c-24 -8 -59 -35 -87 -65 l-48 -51 0 55 0 56 -55 0 -55 0
0 -330 0 -330 59 0 59 0 4 203 c3 185 5 205 25 244 35 65 77 91 176 108 l37 6
0 59 0 60 -37 0 c-21 -1 -56 -7 -78 -15z"/>
<path d="M14292 985 c-83 -26 -134 -73 -183 -165 -31 -60 -39 -211 -15 -292
24 -82 71 -146 135 -182 46 -25 68 -31 140 -34 47 -2 104 1 127 7 84 23 161
104 179 189 l7 32 -59 0 -58 -1 -20 -41 c-26 -54 -58 -77 -121 -84 -61 -8
-112 7 -156 44 -35 30 -67 94 -68 135 l0 27 246 0 247 0 -7 70 c-18 195 -131
312 -300 309 -28 0 -70 -6 -94 -14z m182 -119 c43 -25 86 -88 86 -125 0 -21
-3 -21 -180 -21 -117 0 -180 4 -180 10 0 19 30 84 48 104 55 61 152 75 226 32z"/>
<path d="M16225 987 c-61 -21 -97 -42 -131 -79 -114 -121 -122 -362 -16 -496
17 -21 54 -51 84 -68 50 -27 60 -29 163 -29 103 0 113 2 163 30 64 35 96 71
131 145 21 47 25 69 26 155 0 124 -19 185 -81 254 -60 66 -118 93 -219 97 -50
3 -95 -1 -120 -9z m179 -111 c41 -17 90 -75 105 -125 6 -21 11 -70 11 -108 0
-202 -182 -302 -321 -176 -51 47 -73 113 -67 207 9 137 79 216 191 216 26 0
62 -6 81 -14z"/>
<path d="M18615 986 c-98 -31 -160 -89 -196 -185 -25 -66 -30 -200 -10 -271
28 -101 111 -186 205 -211 22 -6 78 -9 125 -7 135 5 214 56 268 172 25 55 28
71 27 166 0 85 -4 116 -23 162 -29 75 -110 151 -183 173 -62 18 -158 19 -213
1z m178 -110 c76 -32 119 -113 120 -222 1 -210 -181 -316 -324 -187 -52 47
-73 113 -67 209 6 90 42 156 103 191 46 26 119 30 168 9z"/>
<path d="M19400 991 c-45 -14 -88 -40 -109 -67 l-21 -27 0 42 0 41 -55 0 -55
0 0 -330 0 -330 55 0 55 0 0 193 c0 105 5 212 11 237 13 56 52 108 95 126 45
19 134 18 162 -2 48 -34 52 -56 52 -314 l0 -240 61 0 61 0 -4 268 c-3 253 -4
269 -25 309 -26 48 -62 76 -118 92 -45 12 -127 13 -165 2z"/>
<path d="M19993 990 c-105 -25 -171 -108 -160 -201 4 -27 15 -63 27 -79 26
-37 104 -73 205 -95 113 -24 183 -57 191 -90 15 -61 -33 -104 -126 -112 -100
-9 -190 39 -190 103 0 23 -4 24 -60 24 l-60 0 0 -32 c1 -46 31 -109 68 -140
53 -45 120 -61 235 -56 174 6 248 61 255 188 7 122 -36 164 -219 209 -63 16
-123 32 -134 36 -37 14 -65 48 -65 77 0 41 48 68 123 68 78 0 122 -22 144 -71
17 -38 18 -39 70 -39 l53 0 0 33 c0 46 -39 118 -78 144 -57 38 -192 54 -279
33z"/>
<path d="M5570 977 c0 -1 58 -148 129 -325 l130 -323 -16 -37 c-35 -86 -48
-105 -76 -117 -21 -9 -40 -10 -61 -4 -46 13 -46 13 -46 -45 0 -62 5 -66 83
-66 68 0 115 26 149 81 24 38 328 809 328 832 0 4 -28 7 -62 5 l-62 -3 -83
-245 c-46 -135 -87 -248 -91 -252 -4 -4 -48 107 -97 247 l-90 255 -67 0 c-38
0 -68 -1 -68 -3z"/>
<path d="M11902 968 c3 -7 14 -42 26 -78 11 -36 57 -179 102 -317 l81 -253 63
0 64 0 62 250 c34 138 64 250 65 250 1 0 31 -112 65 -250 l62 -250 63 0 c63 0
64 0 74 33 34 110 174 549 186 585 l14 42 -63 0 -63 0 -69 -254 c-38 -140 -70
-253 -72 -251 -2 1 -28 98 -57 215 -30 116 -59 229 -65 251 l-11 39 -64 0
c-64 0 -64 0 -73 -32 -5 -18 -33 -133 -62 -255 -30 -123 -55 -221 -57 -219 -2
2 -31 102 -64 222 -88 320 -69 284 -146 284 -48 0 -64 -3 -61 -12z"/>
<path d="M17050 723 c1 -269 6 -310 47 -355 34 -39 92 -58 177 -58 91 0 149
22 191 72 l25 30 0 -46 0 -46 55 0 55 0 0 330 0 330 -60 0 -60 0 0 -207 c-1
-264 -12 -302 -105 -344 -85 -39 -177 -11 -202 61 -8 23 -12 114 -12 263 l-1
227 -55 0 -55 0 0 -257z"/>
<path d="M18160 650 l0 -330 55 0 55 0 0 330 0 330 -55 0 -55 0 0 -330z"/>
</g>
</svg>
